<svg width="44" height="44" viewBox="0 0 44 44" fill="none" xmlns="http://www.w3.org/2000/svg">
<path d="M23.8063 25.7574C23.8063 25.1892 23.667 24.7405 23.3836 24.4158C23.1001 24.0911 22.6053 23.7856 21.8943 23.4991C21.1833 23.2127 20.5252 22.9214 19.9247 22.6254C19.3242 22.3294 18.8053 21.9857 18.3682 21.599C17.931 21.2122 17.5995 20.7587 17.3689 20.2478C17.1383 19.737 17.023 19.1163 17.023 18.3906C17.023 17.1732 17.4362 16.1706 18.2625 15.3828C19.0888 14.5951 20.1889 14.1367 21.5676 14.003V11.7161H23.2971V14.0412C24.623 14.237 25.6655 14.7765 26.4245 15.6693C27.1835 16.5621 27.5582 17.6888 27.5582 19.059H23.8832C23.8832 18.3095 23.7391 17.7318 23.446 17.3307C23.1578 16.9297 22.7446 16.7244 22.2066 16.7244C21.7262 16.7244 21.3563 16.8724 21.092 17.1732C20.8278 17.474 20.6933 17.8845 20.6933 18.4097C20.6933 18.9349 20.847 19.3646 21.1497 19.6797C21.4523 19.9948 21.9424 20.2908 22.6197 20.5773C23.2923 20.8637 23.9312 21.1549 24.5269 21.4653C25.1226 21.7708 25.6414 22.1194 26.0786 22.5061C26.5158 22.8928 26.8521 23.3511 27.1019 23.8668C27.3469 24.3872 27.4718 25.0078 27.4718 25.7383C27.4718 26.9701 27.0778 27.9774 26.29 28.7509C25.5021 29.5291 24.4308 29.9826 23.0761 30.1115V32.2839H21.3467V30.102C19.7661 29.9349 18.5555 29.3954 17.71 28.4883C16.8645 27.5764 16.4418 26.378 16.4418 24.8837H20.1072C20.1072 25.7049 20.2898 26.3303 20.6549 26.76C21.02 27.1897 21.5388 27.4045 22.2162 27.4045C22.711 27.4045 23.0953 27.2565 23.3788 26.9653C23.6622 26.6693 23.8063 26.2682 23.8063 25.7574Z" fill="url(#paint0_linear_2328_9553)"></path>
<path d="M4.13065 24.4444C5.3304 33.1881 12.8726 39.9259 22 39.9259C31.1274 39.9259 38.6696 33.1881 39.8693 24.4444H44C42.7764 35.4442 33.3944 44 22 44C10.6056 44 1.22363 35.4442 0 24.4444H4.13065Z" fill="url(#paint1_linear_2328_9553)"></path>
<path d="M8.81858 9.76505C6.51551 12.2146 4.89602 15.3062 4.26116 18.7407H0.105688C0.820915 13.9547 3.08589 9.67129 6.37894 6.41189L8.81858 9.76505Z" fill="url(#paint2_linear_2328_9553)"></path>
<path d="M22 0C33.1115 0 42.3096 8.13615 43.8943 18.7407H39.7388C38.1965 10.3968 30.8418 4.07407 22 4.07407C18.8672 4.07407 15.9208 4.86772 13.3536 6.26389L10.9363 2.94018C14.1913 1.07005 17.9699 0 22 0Z" fill="url(#paint3_linear_2328_9553)"></path>
<defs>
<linearGradient id="paint0_linear_2328_9553" x1="13.5385" y1="14.96" x2="32.316" y2="43.3327" gradientUnits="userSpaceOnUse">
<stop stop-color="white"></stop>
<stop offset="1" stop-color="#9C96F6"></stop>
</linearGradient>
<linearGradient id="paint1_linear_2328_9553" x1="13.5385" y1="14.96" x2="32.316" y2="43.3327" gradientUnits="userSpaceOnUse">
<stop stop-color="white"></stop>
<stop offset="1" stop-color="#9C96F6"></stop>
</linearGradient>
<linearGradient id="paint2_linear_2328_9553" x1="13.5385" y1="14.96" x2="32.316" y2="43.3327" gradientUnits="userSpaceOnUse">
<stop stop-color="white"></stop>
<stop offset="1" stop-color="#9C96F6"></stop>
</linearGradient>
<linearGradient id="paint3_linear_2328_9553" x1="13.5385" y1="14.96" x2="32.316" y2="43.3327" gradientUnits="userSpaceOnUse">
<stop stop-color="white"></stop>
<stop offset="1" stop-color="#9C96F6"></stop>
</linearGradient>
</defs>
</svg>