<svg width="116" height="43" viewBox="0 0 116 43" fill="none" xmlns="http://www.w3.org/2000/svg">
<path d="M53.6776 2.09766H59.726V32.5464H55.2519L54.5476 30.6822C52.5591 32.3669 50.2254 33.2092 47.5465 33.2092C45.3094 33.2092 43.2933 32.6983 41.4982 31.6764C39.703 30.6546 38.2945 29.246 37.2726 27.4509C36.2784 25.6281 35.7812 23.5982 35.7812 21.3611C35.7812 19.1241 36.2784 17.108 37.2726 15.3128C38.2945 13.5177 39.703 12.1091 41.4982 11.0873C43.2933 10.0654 45.3094 9.55449 47.5465 9.55449C49.8111 9.55449 51.8549 10.1621 53.6776 11.3773V2.09766ZM43.6523 25.7524C44.8123 26.9123 46.2622 27.4923 48.0022 27.4923C49.7697 27.4923 51.2335 26.9123 52.3934 25.7524C53.5534 24.5648 54.1333 23.1011 54.1333 21.3611C54.1333 19.5936 53.5534 18.1298 52.3934 16.9699C51.2335 15.8099 49.7697 15.23 48.0022 15.23C46.2622 15.23 44.8123 15.8099 43.6523 16.9699C42.4924 18.1298 41.9124 19.5936 41.9124 21.3611C41.9124 23.1287 42.4924 24.5924 43.6523 25.7524Z" fill="#E7E7E9"></path>
<path d="M2.09766 32.5464V2.09766H8.14597V32.5464H2.09766Z" fill="#E7E7E9"></path>
<path fill-rule="evenodd" clip-rule="evenodd" d="M22.7343 9.55469C24.9714 9.55469 26.9737 10.0794 28.7413 11.1289C30.0966 11.9212 31.2077 12.9262 32.075 14.1436L28.3208 23.0598H17.2661C17.5147 24.5787 18.1083 25.7525 19.0472 26.581C20.0138 27.3819 21.243 27.7824 22.7343 27.7824C23.7561 27.7824 24.6814 27.5616 25.5099 27.1197C26.3385 26.6502 26.9874 26.0146 27.4569 25.2137H33.8367C33.0081 27.644 31.5998 29.5776 29.6113 31.0137C27.6228 32.4499 25.3304 33.1676 22.7343 33.1676C19.4202 33.1676 16.6585 32.0355 14.4491 29.7709C12.2396 27.5062 11.1348 24.7029 11.1348 21.3612C11.1348 20.0356 11.3145 18.7652 11.6735 17.5501C12.0601 16.3349 12.5987 15.2439 13.2892 14.2773C14.0072 13.3106 14.8359 12.482 15.7749 11.7915C16.7139 11.0735 17.7773 10.521 18.9648 10.1344C20.1523 9.74779 21.4088 9.55469 22.7343 9.55469ZM22.7343 14.6916C21.3811 14.6916 20.2351 15.0644 19.2961 15.81C18.3847 16.5557 17.763 17.5913 17.4315 18.9169H28.244C27.9678 18.0056 27.5673 17.2461 27.0426 16.6386C26.5179 16.0034 25.8828 15.5202 25.1371 15.1888C24.419 14.8574 23.6181 14.6916 22.7343 14.6916Z" fill="#E7E7E9"></path>
<path d="M101.78 25.4137H101.864L107.226 9.47314H113.516L101.442 40.9366H95.0681L98.6985 32.2286L89.918 9.47314H96.3767L101.78 25.4137Z" fill="#E7E7E9"></path>
<path d="M65.2704 35.6928H83.624L82.0509 40.9367H65.2704V35.6928Z" fill="#E7E7E9"></path>
<path fill-rule="evenodd" clip-rule="evenodd" d="M87.6451 10.8621L84.4577 14.4325C85.9116 16.4248 86.7704 18.8791 86.7704 21.5343C86.7704 28.1954 81.3705 33.5953 74.7094 33.5953C68.0483 33.5953 62.6484 28.1954 62.6484 21.5343C62.6484 14.8732 68.0483 9.47331 74.7094 9.47331C76.6785 9.47331 78.5374 9.94537 80.1792 10.7822L83.4504 7.11816L87.6451 10.8621ZM74.7094 14.7172C70.9444 14.7172 67.8923 17.7693 67.8923 21.5343C67.8923 25.2993 70.9444 28.3514 74.7094 28.3514C78.4744 28.3514 81.5265 25.2993 81.5265 21.5343C81.5265 17.7693 78.4744 14.7172 74.7094 14.7172Z" fill="#E7E7E9"></path>
</svg>